<svg xmlns="http://www.w3.org/2000/svg" viewBox="0 0 900 168" width="900" height="168">
<defs>
<style>

.t{font-family:"Courier New",Courier,monospace;}
.lbl{animation:fadein 2s ease-out 0.2s both;}
@keyframes fadein{from{opacity:0}to{opacity:1}}
@keyframes wave{
  0%,100%{opacity:0.35}
  50%    {opacity:1}
}
.col0{animation:wave 5.8s ease-in-out 0.0s infinite;}
.col1{animation:wave 5.8s ease-in-out 0.11s infinite;}
.col2{animation:wave 5.8s ease-in-out 0.22s infinite;}
.col3{animation:wave 5.8s ease-in-out 0.33s infinite;}
.col4{animation:wave 5.8s ease-in-out 0.44s infinite;}
.col5{animation:wave 5.8s ease-in-out 0.55s infinite;}
.col6{animation:wave 5.8s ease-in-out 0.66s infinite;}
.col7{animation:wave 5.8s ease-in-out 0.77s infinite;}
.col8{animation:wave 5.8s ease-in-out 0.88s infinite;}
.col9{animation:wave 5.8s ease-in-out 0.99s infinite;}
.col10{animation:wave 5.8s ease-in-out 1.1s infinite;}
.col11{animation:wave 5.8s ease-in-out 1.21s infinite;}
.col12{animation:wave 5.8s ease-in-out 1.32s infinite;}
.col13{animation:wave 5.8s ease-in-out 1.43s infinite;}
.col14{animation:wave 5.8s ease-in-out 1.54s infinite;}
.col15{animation:wave 5.8s ease-in-out 1.65s infinite;}
.col16{animation:wave 5.8s ease-in-out 1.76s infinite;}
.col17{animation:wave 5.8s ease-in-out 1.87s infinite;}
.col18{animation:wave 5.8s ease-in-out 1.98s infinite;}
.col19{animation:wave 5.8s ease-in-out 2.09s infinite;}
.col20{animation:wave 5.8s ease-in-out 2.2s infinite;}
.col21{animation:wave 5.8s ease-in-out 2.31s infinite;}
.col22{animation:wave 5.8s ease-in-out 2.42s infinite;}
.col23{animation:wave 5.8s ease-in-out 2.53s infinite;}
.col24{animation:wave 5.8s ease-in-out 2.64s infinite;}
.col25{animation:wave 5.8s ease-in-out 2.75s infinite;}
.col26{animation:wave 5.8s ease-in-out 2.86s infinite;}
.col27{animation:wave 5.8s ease-in-out 2.97s infinite;}
.col28{animation:wave 5.8s ease-in-out 3.08s infinite;}
.col29{animation:wave 5.8s ease-in-out 3.19s infinite;}
.col30{animation:wave 5.8s ease-in-out 3.3s infinite;}
.col31{animation:wave 5.8s ease-in-out 3.41s infinite;}
.col32{animation:wave 5.8s ease-in-out 3.52s infinite;}
.col33{animation:wave 5.8s ease-in-out 3.63s infinite;}
.col34{animation:wave 5.8s ease-in-out 3.74s infinite;}
.col35{animation:wave 5.8s ease-in-out 3.85s infinite;}
.col36{animation:wave 5.8s ease-in-out 3.96s infinite;}
.col37{animation:wave 5.8s ease-in-out 4.07s infinite;}
.col38{animation:wave 5.8s ease-in-out 4.18s infinite;}
.col39{animation:wave 5.8s ease-in-out 4.29s infinite;}
.col40{animation:wave 5.8s ease-in-out 4.4s infinite;}
.col41{animation:wave 5.8s ease-in-out 4.51s infinite;}
.col42{animation:wave 5.8s ease-in-out 4.62s infinite;}
.col43{animation:wave 5.8s ease-in-out 4.73s infinite;}
.col44{animation:wave 5.8s ease-in-out 4.84s infinite;}
.col45{animation:wave 5.8s ease-in-out 4.95s infinite;}
.col46{animation:wave 5.8s ease-in-out 5.06s infinite;}
.col47{animation:wave 5.8s ease-in-out 5.17s infinite;}
.col48{animation:wave 5.8s ease-in-out 5.28s infinite;}
.col49{animation:wave 5.8s ease-in-out 5.39s infinite;}
.col50{animation:wave 5.8s ease-in-out 5.5s infinite;}
.col51{animation:wave 5.8s ease-in-out 5.61s infinite;}
</style>
</defs>
<rect width="900" height="168" fill="#0d1117"/>
<text x="450" y="20" text-anchor="middle" font-size="11" fill="#39ff14" opacity="0.55" class="t lbl">&#x27E6; CONTRIBUTION ACTIVITY  &#xB7;  ShivamGawade-XS  &#xB7;  2024 &#x2013; 2026 &#x27E7;</text>
<rect x="44" y="28" width="812" height="0.7" fill="#39ff14" opacity="0.22"/>
<text x="79" y="77" text-anchor="end" font-size="9" fill="#39ff14" opacity="0.40" class="t lbl">Mon</text>
<text x="79" y="105" text-anchor="end" font-size="9" fill="#39ff14" opacity="0.40" class="t lbl">Wed</text>
<text x="79" y="133" text-anchor="end" font-size="9" fill="#39ff14" opacity="0.40" class="t lbl">Fri</text>
<g class="col0">
  <rect x="87" y="54" width="11" height="11" rx="2" ry="2" fill="#0d1117"/>
  <rect x="87" y="68" width="11" height="11" rx="2" ry="2" fill="#0d1117"/>
  <rect x="87" y="82" width="11" height="11" rx="2" ry="2" fill="#0d1117"/>
  <rect x="87" y="96" width="11" height="11" rx="2" ry="2" fill="#0d1117"/>
  <rect x="87" y="110" width="11" height="11" rx="2" ry="2" fill="#0d1117"/>
  <rect x="87" y="124" width="11" height="11" rx="2" ry="2" fill="#0d1117"/>
  <rect x="87" y="138" width="11" height="11" rx="2" ry="2" fill="#0d1117"/>
</g>
<g class="col1">
  <rect x="101" y="54" width="11" height="11" rx="2" ry="2" fill="#0d1117"/>
  <rect x="101" y="68" width="11" height="11" rx="2" ry="2" fill="#0d1117"/>
  <rect x="101" y="82" width="11" height="11" rx="2" ry="2" fill="#0d1117"/>
  <rect x="101" y="96" width="11" height="11" rx="2" ry="2" fill="#0d1117"/>
  <rect x="101" y="110" width="11" height="11" rx="2" ry="2" fill="#0d1117"/>
  <rect x="101" y="124" width="11" height="11" rx="2" ry="2" fill="#0d1117"/>
  <rect x="101" y="138" width="11" height="11" rx="2" ry="2" fill="#0d1117"/>
</g>
<g class="col2">
  <rect x="115" y="54" width="11" height="11" rx="2" ry="2" fill="#0d1117"/>
  <rect x="115" y="68" width="11" height="11" rx="2" ry="2" fill="#0d1117"/>
  <rect x="115" y="82" width="11" height="11" rx="2" ry="2" fill="#0d1117"/>
  <rect x="115" y="96" width="11" height="11" rx="2" ry="2" fill="#0d1117"/>
  <rect x="115" y="110" width="11" height="11" rx="2" ry="2" fill="#0d1117"/>
  <rect x="115" y="124" width="11" height="11" rx="2" ry="2" fill="#0d1117"/>
  <rect x="115" y="138" width="11" height="11" rx="2" ry="2" fill="#0d1117"/>
</g>
<g class="col3">
  <rect x="129" y="54" width="11" height="11" rx="2" ry="2" fill="#0d1117"/>
  <rect x="129" y="68" width="11" height="11" rx="2" ry="2" fill="#0d1117"/>
  <rect x="129" y="82" width="11" height="11" rx="2" ry="2" fill="#0d1117"/>
  <rect x="129" y="96" width="11" height="11" rx="2" ry="2" fill="#0d1117"/>
  <rect x="129" y="110" width="11" height="11" rx="2" ry="2" fill="#0d1117"/>
  <rect x="129" y="124" width="11" height="11" rx="2" ry="2" fill="#0d1117"/>
  <rect x="129" y="138" width="11" height="11" rx="2" ry="2" fill="#0d1117"/>
</g>
<g class="col4">
  <rect x="143" y="54" width="11" height="11" rx="2" ry="2" fill="#0d1117"/>
  <rect x="143" y="68" width="11" height="11" rx="2" ry="2" fill="#005c16"/>
  <rect x="143" y="82" width="11" height="11" rx="2" ry="2" fill="#0d1117"/>
  <rect x="143" y="96" width="11" height="11" rx="2" ry="2" fill="#0d1117"/>
  <rect x="143" y="110" width="11" height="11" rx="2" ry="2" fill="#0d1117"/>
  <rect x="143" y="124" width="11" height="11" rx="2" ry="2" fill="#0d1117"/>
  <rect x="143" y="138" width="11" height="11" rx="2" ry="2" fill="#0d1117"/>
</g>
<g class="col5">
  <rect x="157" y="54" width="11" height="11" rx="2" ry="2" fill="#0d1117"/>
  <rect x="157" y="68" width="11" height="11" rx="2" ry="2" fill="#002808"/>
  <rect x="157" y="82" width="11" height="11" rx="2" ry="2" fill="#0d1117"/>
  <rect x="157" y="96" width="11" height="11" rx="2" ry="2" fill="#0d1117"/>
  <rect x="157" y="110" width="11" height="11" rx="2" ry="2" fill="#0d1117"/>
  <rect x="157" y="124" width="11" height="11" rx="2" ry="2" fill="#0d1117"/>
  <rect x="157" y="138" width="11" height="11" rx="2" ry="2" fill="#0d1117"/>
</g>
<g class="col6">
  <rect x="171" y="54" width="11" height="11" rx="2" ry="2" fill="#005c16"/>
  <rect x="171" y="68" width="11" height="11" rx="2" ry="2" fill="#0d1117"/>
  <rect x="171" y="82" width="11" height="11" rx="2" ry="2" fill="#0d1117"/>
  <rect x="171" y="96" width="11" height="11" rx="2" ry="2" fill="#0d1117"/>
  <rect x="171" y="110" width="11" height="11" rx="2" ry="2" fill="#0d1117"/>
  <rect x="171" y="124" width="11" height="11" rx="2" ry="2" fill="#0d1117"/>
  <rect x="171" y="138" width="11" height="11" rx="2" ry="2" fill="#0d1117"/>
</g>
<g class="col7">
  <rect x="185" y="54" width="11" height="11" rx="2" ry="2" fill="#0d1117"/>
  <rect x="185" y="68" width="11" height="11" rx="2" ry="2" fill="#0d1117"/>
  <rect x="185" y="82" width="11" height="11" rx="2" ry="2" fill="#0d1117"/>
  <rect x="185" y="96" width="11" height="11" rx="2" ry="2" fill="#26a641"/>
  <rect x="185" y="110" width="11" height="11" rx="2" ry="2" fill="#39ff14"/>
  <rect x="185" y="124" width="11" height="11" rx="2" ry="2" fill="#0d1117"/>
  <rect x="185" y="138" width="11" height="11" rx="2" ry="2" fill="#0d1117"/>
</g>
<g class="col8">
  <rect x="199" y="54" width="11" height="11" rx="2" ry="2" fill="#002808"/>
  <rect x="199" y="68" width="11" height="11" rx="2" ry="2" fill="#0d1117"/>
  <rect x="199" y="82" width="11" height="11" rx="2" ry="2" fill="#0d1117"/>
  <rect x="199" y="96" width="11" height="11" rx="2" ry="2" fill="#0d1117"/>
  <rect x="199" y="110" width="11" height="11" rx="2" ry="2" fill="#0d1117"/>
  <rect x="199" y="124" width="11" height="11" rx="2" ry="2" fill="#0d1117"/>
  <rect x="199" y="138" width="11" height="11" rx="2" ry="2" fill="#0d1117"/>
</g>
<g class="col9">
  <rect x="213" y="54" width="11" height="11" rx="2" ry="2" fill="#0d1117"/>
  <rect x="213" y="68" width="11" height="11" rx="2" ry="2" fill="#0d1117"/>
  <rect x="213" y="82" width="11" height="11" rx="2" ry="2" fill="#0d1117"/>
  <rect x="213" y="96" width="11" height="11" rx="2" ry="2" fill="#0d1117"/>
  <rect x="213" y="110" width="11" height="11" rx="2" ry="2" fill="#0d1117"/>
  <rect x="213" y="124" width="11" height="11" rx="2" ry="2" fill="#0d1117"/>
  <rect x="213" y="138" width="11" height="11" rx="2" ry="2" fill="#0d1117"/>
</g>
<g class="col10">
  <rect x="227" y="54" width="11" height="11" rx="2" ry="2" fill="#0d1117"/>
  <rect x="227" y="68" width="11" height="11" rx="2" ry="2" fill="#0d1117"/>
  <rect x="227" y="82" width="11" height="11" rx="2" ry="2" fill="#0d1117"/>
  <rect x="227" y="96" width="11" height="11" rx="2" ry="2" fill="#0d1117"/>
  <rect x="227" y="110" width="11" height="11" rx="2" ry="2" fill="#0d1117"/>
  <rect x="227" y="124" width="11" height="11" rx="2" ry="2" fill="#0d1117"/>
  <rect x="227" y="138" width="11" height="11" rx="2" ry="2" fill="#0d1117"/>
</g>
<g class="col11">
  <rect x="241" y="54" width="11" height="11" rx="2" ry="2" fill="#002808"/>
  <rect x="241" y="68" width="11" height="11" rx="2" ry="2" fill="#0d1117"/>
  <rect x="241" y="82" width="11" height="11" rx="2" ry="2" fill="#0d1117"/>
  <rect x="241" y="96" width="11" height="11" rx="2" ry="2" fill="#0d1117"/>
  <rect x="241" y="110" width="11" height="11" rx="2" ry="2" fill="#0d1117"/>
  <rect x="241" y="124" width="11" height="11" rx="2" ry="2" fill="#0d1117"/>
  <rect x="241" y="138" width="11" height="11" rx="2" ry="2" fill="#0d1117"/>
</g>
<g class="col12">
  <rect x="255" y="54" width="11" height="11" rx="2" ry="2" fill="#0d1117"/>
  <rect x="255" y="68" width="11" height="11" rx="2" ry="2" fill="#0d1117"/>
  <rect x="255" y="82" width="11" height="11" rx="2" ry="2" fill="#0d1117"/>
  <rect x="255" y="96" width="11" height="11" rx="2" ry="2" fill="#0d1117"/>
  <rect x="255" y="110" width="11" height="11" rx="2" ry="2" fill="#0d1117"/>
  <rect x="255" y="124" width="11" height="11" rx="2" ry="2" fill="#0d1117"/>
  <rect x="255" y="138" width="11" height="11" rx="2" ry="2" fill="#0d1117"/>
</g>
<g class="col13">
  <rect x="269" y="54" width="11" height="11" rx="2" ry="2" fill="#0d1117"/>
  <rect x="269" y="68" width="11" height="11" rx="2" ry="2" fill="#0d1117"/>
  <rect x="269" y="82" width="11" height="11" rx="2" ry="2" fill="#002808"/>
  <rect x="269" y="96" width="11" height="11" rx="2" ry="2" fill="#0d1117"/>
  <rect x="269" y="110" width="11" height="11" rx="2" ry="2" fill="#0d1117"/>
  <rect x="269" y="124" width="11" height="11" rx="2" ry="2" fill="#0d1117"/>
  <rect x="269" y="138" width="11" height="11" rx="2" ry="2" fill="#0d1117"/>
</g>
<g class="col14">
  <rect x="283" y="54" width="11" height="11" rx="2" ry="2" fill="#0d1117"/>
  <rect x="283" y="68" width="11" height="11" rx="2" ry="2" fill="#0d1117"/>
  <rect x="283" y="82" width="11" height="11" rx="2" ry="2" fill="#0d1117"/>
  <rect x="283" y="96" width="11" height="11" rx="2" ry="2" fill="#26a641"/>
  <rect x="283" y="110" width="11" height="11" rx="2" ry="2" fill="#0d1117"/>
  <rect x="283" y="124" width="11" height="11" rx="2" ry="2" fill="#002808"/>
  <rect x="283" y="138" width="11" height="11" rx="2" ry="2" fill="#0d1117"/>
</g>
<g class="col15">
  <rect x="297" y="54" width="11" height="11" rx="2" ry="2" fill="#0d1117"/>
  <rect x="297" y="68" width="11" height="11" rx="2" ry="2" fill="#39ff14"/>
  <rect x="297" y="82" width="11" height="11" rx="2" ry="2" fill="#0d1117"/>
  <rect x="297" y="96" width="11" height="11" rx="2" ry="2" fill="#0d1117"/>
  <rect x="297" y="110" width="11" height="11" rx="2" ry="2" fill="#002808"/>
  <rect x="297" y="124" width="11" height="11" rx="2" ry="2" fill="#002808"/>
  <rect x="297" y="138" width="11" height="11" rx="2" ry="2" fill="#0d1117"/>
</g>
<g class="col16">
  <rect x="311" y="54" width="11" height="11" rx="2" ry="2" fill="#0d1117"/>
  <rect x="311" y="68" width="11" height="11" rx="2" ry="2" fill="#0d1117"/>
  <rect x="311" y="82" width="11" height="11" rx="2" ry="2" fill="#0d1117"/>
  <rect x="311" y="96" width="11" height="11" rx="2" ry="2" fill="#26a641"/>
  <rect x="311" y="110" width="11" height="11" rx="2" ry="2" fill="#0d1117"/>
  <rect x="311" y="124" width="11" height="11" rx="2" ry="2" fill="#0d1117"/>
  <rect x="311" y="138" width="11" height="11" rx="2" ry="2" fill="#0d1117"/>
</g>
<g class="col17">
  <rect x="325" y="54" width="11" height="11" rx="2" ry="2" fill="#0d1117"/>
  <rect x="325" y="68" width="11" height="11" rx="2" ry="2" fill="#0d1117"/>
  <rect x="325" y="82" width="11" height="11" rx="2" ry="2" fill="#26a641"/>
  <rect x="325" y="96" width="11" height="11" rx="2" ry="2" fill="#0d1117"/>
  <rect x="325" y="110" width="11" height="11" rx="2" ry="2" fill="#0d1117"/>
  <rect x="325" y="124" width="11" height="11" rx="2" ry="2" fill="#0d1117"/>
  <rect x="325" y="138" width="11" height="11" rx="2" ry="2" fill="#0d1117"/>
</g>
<g class="col18">
  <rect x="339" y="54" width="11" height="11" rx="2" ry="2" fill="#002808"/>
  <rect x="339" y="68" width="11" height="11" rx="2" ry="2" fill="#0d1117"/>
  <rect x="339" y="82" width="11" height="11" rx="2" ry="2" fill="#0d1117"/>
  <rect x="339" y="96" width="11" height="11" rx="2" ry="2" fill="#0d1117"/>
  <rect x="339" y="110" width="11" height="11" rx="2" ry="2" fill="#005c16"/>
  <rect x="339" y="124" width="11" height="11" rx="2" ry="2" fill="#0d1117"/>
  <rect x="339" y="138" width="11" height="11" rx="2" ry="2" fill="#0d1117"/>
</g>
<g class="col19">
  <rect x="353" y="54" width="11" height="11" rx="2" ry="2" fill="#39ff14"/>
  <rect x="353" y="68" width="11" height="11" rx="2" ry="2" fill="#002808"/>
  <rect x="353" y="82" width="11" height="11" rx="2" ry="2" fill="#005c16"/>
  <rect x="353" y="96" width="11" height="11" rx="2" ry="2" fill="#0d1117"/>
  <rect x="353" y="110" width="11" height="11" rx="2" ry="2" fill="#0d1117"/>
  <rect x="353" y="124" width="11" height="11" rx="2" ry="2" fill="#005c16"/>
  <rect x="353" y="138" width="11" height="11" rx="2" ry="2" fill="#26a641"/>
</g>
<g class="col20">
  <rect x="367" y="54" width="11" height="11" rx="2" ry="2" fill="#26a641"/>
  <rect x="367" y="68" width="11" height="11" rx="2" ry="2" fill="#0d1117"/>
  <rect x="367" y="82" width="11" height="11" rx="2" ry="2" fill="#0d1117"/>
  <rect x="367" y="96" width="11" height="11" rx="2" ry="2" fill="#0d1117"/>
  <rect x="367" y="110" width="11" height="11" rx="2" ry="2" fill="#005c16"/>
  <rect x="367" y="124" width="11" height="11" rx="2" ry="2" fill="#0d1117"/>
  <rect x="367" y="138" width="11" height="11" rx="2" ry="2" fill="#005c16"/>
</g>
<g class="col21">
  <rect x="381" y="54" width="11" height="11" rx="2" ry="2" fill="#0d1117"/>
  <rect x="381" y="68" width="11" height="11" rx="2" ry="2" fill="#005c16"/>
  <rect x="381" y="82" width="11" height="11" rx="2" ry="2" fill="#002808"/>
  <rect x="381" y="96" width="11" height="11" rx="2" ry="2" fill="#005c16"/>
  <rect x="381" y="110" width="11" height="11" rx="2" ry="2" fill="#0d1117"/>
  <rect x="381" y="124" width="11" height="11" rx="2" ry="2" fill="#0d1117"/>
  <rect x="381" y="138" width="11" height="11" rx="2" ry="2" fill="#0d1117"/>
</g>
<g class="col22">
  <rect x="395" y="54" width="11" height="11" rx="2" ry="2" fill="#002808"/>
  <rect x="395" y="68" width="11" height="11" rx="2" ry="2" fill="#0d1117"/>
  <rect x="395" y="82" width="11" height="11" rx="2" ry="2" fill="#005c16"/>
  <rect x="395" y="96" width="11" height="11" rx="2" ry="2" fill="#0d1117"/>
  <rect x="395" y="110" width="11" height="11" rx="2" ry="2" fill="#0d1117"/>
  <rect x="395" y="124" width="11" height="11" rx="2" ry="2" fill="#0d1117"/>
  <rect x="395" y="138" width="11" height="11" rx="2" ry="2" fill="#002808"/>
</g>
<g class="col23">
  <rect x="409" y="54" width="11" height="11" rx="2" ry="2" fill="#005c16"/>
  <rect x="409" y="68" width="11" height="11" rx="2" ry="2" fill="#0d1117"/>
  <rect x="409" y="82" width="11" height="11" rx="2" ry="2" fill="#26a641"/>
  <rect x="409" y="96" width="11" height="11" rx="2" ry="2" fill="#26a641"/>
  <rect x="409" y="110" width="11" height="11" rx="2" ry="2" fill="#0d1117"/>
  <rect x="409" y="124" width="11" height="11" rx="2" ry="2" fill="#0d1117"/>
  <rect x="409" y="138" width="11" height="11" rx="2" ry="2" fill="#0d1117"/>
</g>
<g class="col24">
  <rect x="423" y="54" width="11" height="11" rx="2" ry="2" fill="#0d1117"/>
  <rect x="423" y="68" width="11" height="11" rx="2" ry="2" fill="#005c16"/>
  <rect x="423" y="82" width="11" height="11" rx="2" ry="2" fill="#002808"/>
  <rect x="423" y="96" width="11" height="11" rx="2" ry="2" fill="#0d1117"/>
  <rect x="423" y="110" width="11" height="11" rx="2" ry="2" fill="#0d1117"/>
  <rect x="423" y="124" width="11" height="11" rx="2" ry="2" fill="#0d1117"/>
  <rect x="423" y="138" width="11" height="11" rx="2" ry="2" fill="#002808"/>
</g>
<g class="col25">
  <rect x="437" y="54" width="11" height="11" rx="2" ry="2" fill="#0d1117"/>
  <rect x="437" y="68" width="11" height="11" rx="2" ry="2" fill="#0d1117"/>
  <rect x="437" y="82" width="11" height="11" rx="2" ry="2" fill="#002808"/>
  <rect x="437" y="96" width="11" height="11" rx="2" ry="2" fill="#0d1117"/>
  <rect x="437" y="110" width="11" height="11" rx="2" ry="2" fill="#0d1117"/>
  <rect x="437" y="124" width="11" height="11" rx="2" ry="2" fill="#0d1117"/>
  <rect x="437" y="138" width="11" height="11" rx="2" ry="2" fill="#26a641"/>
</g>
<g class="col26">
  <rect x="451" y="54" width="11" height="11" rx="2" ry="2" fill="#0d1117"/>
  <rect x="451" y="68" width="11" height="11" rx="2" ry="2" fill="#0d1117"/>
  <rect x="451" y="82" width="11" height="11" rx="2" ry="2" fill="#0d1117"/>
  <rect x="451" y="96" width="11" height="11" rx="2" ry="2" fill="#002808"/>
  <rect x="451" y="110" width="11" height="11" rx="2" ry="2" fill="#0d1117"/>
  <rect x="451" y="124" width="11" height="11" rx="2" ry="2" fill="#0d1117"/>
  <rect x="451" y="138" width="11" height="11" rx="2" ry="2" fill="#26a641"/>
</g>
<g class="col27">
  <rect x="465" y="54" width="11" height="11" rx="2" ry="2" fill="#005c16"/>
  <rect x="465" y="68" width="11" height="11" rx="2" ry="2" fill="#26a641"/>
  <rect x="465" y="82" width="11" height="11" rx="2" ry="2" fill="#0d1117"/>
  <rect x="465" y="96" width="11" height="11" rx="2" ry="2" fill="#002808"/>
  <rect x="465" y="110" width="11" height="11" rx="2" ry="2" fill="#0d1117"/>
  <rect x="465" y="124" width="11" height="11" rx="2" ry="2" fill="#0d1117"/>
  <rect x="465" y="138" width="11" height="11" rx="2" ry="2" fill="#002808"/>
</g>
<g class="col28">
  <rect x="479" y="54" width="11" height="11" rx="2" ry="2" fill="#0d1117"/>
  <rect x="479" y="68" width="11" height="11" rx="2" ry="2" fill="#002808"/>
  <rect x="479" y="82" width="11" height="11" rx="2" ry="2" fill="#26a641"/>
  <rect x="479" y="96" width="11" height="11" rx="2" ry="2" fill="#39ff14"/>
  <rect x="479" y="110" width="11" height="11" rx="2" ry="2" fill="#002808"/>
  <rect x="479" y="124" width="11" height="11" rx="2" ry="2" fill="#0d1117"/>
  <rect x="479" y="138" width="11" height="11" rx="2" ry="2" fill="#39ff14"/>
</g>
<g class="col29">
  <rect x="493" y="54" width="11" height="11" rx="2" ry="2" fill="#39ff14"/>
  <rect x="493" y="68" width="11" height="11" rx="2" ry="2" fill="#002808"/>
  <rect x="493" y="82" width="11" height="11" rx="2" ry="2" fill="#0d1117"/>
  <rect x="493" y="96" width="11" height="11" rx="2" ry="2" fill="#0d1117"/>
  <rect x="493" y="110" width="11" height="11" rx="2" ry="2" fill="#002808"/>
  <rect x="493" y="124" width="11" height="11" rx="2" ry="2" fill="#0d1117"/>
  <rect x="493" y="138" width="11" height="11" rx="2" ry="2" fill="#0d1117"/>
</g>
<g class="col30">
  <rect x="507" y="54" width="11" height="11" rx="2" ry="2" fill="#0d1117"/>
  <rect x="507" y="68" width="11" height="11" rx="2" ry="2" fill="#0d1117"/>
  <rect x="507" y="82" width="11" height="11" rx="2" ry="2" fill="#26a641"/>
  <rect x="507" y="96" width="11" height="11" rx="2" ry="2" fill="#002808"/>
  <rect x="507" y="110" width="11" height="11" rx="2" ry="2" fill="#0d1117"/>
  <rect x="507" y="124" width="11" height="11" rx="2" ry="2" fill="#0d1117"/>
  <rect x="507" y="138" width="11" height="11" rx="2" ry="2" fill="#0d1117"/>
</g>
<g class="col31">
  <rect x="521" y="54" width="11" height="11" rx="2" ry="2" fill="#0d1117"/>
  <rect x="521" y="68" width="11" height="11" rx="2" ry="2" fill="#0d1117"/>
  <rect x="521" y="82" width="11" height="11" rx="2" ry="2" fill="#002808"/>
  <rect x="521" y="96" width="11" height="11" rx="2" ry="2" fill="#002808"/>
  <rect x="521" y="110" width="11" height="11" rx="2" ry="2" fill="#39ff14"/>
  <rect x="521" y="124" width="11" height="11" rx="2" ry="2" fill="#0d1117"/>
  <rect x="521" y="138" width="11" height="11" rx="2" ry="2" fill="#002808"/>
</g>
<g class="col32">
  <rect x="535" y="54" width="11" height="11" rx="2" ry="2" fill="#0d1117"/>
  <rect x="535" y="68" width="11" height="11" rx="2" ry="2" fill="#002808"/>
  <rect x="535" y="82" width="11" height="11" rx="2" ry="2" fill="#002808"/>
  <rect x="535" y="96" width="11" height="11" rx="2" ry="2" fill="#0d1117"/>
  <rect x="535" y="110" width="11" height="11" rx="2" ry="2" fill="#005c16"/>
  <rect x="535" y="124" width="11" height="11" rx="2" ry="2" fill="#0d1117"/>
  <rect x="535" y="138" width="11" height="11" rx="2" ry="2" fill="#002808"/>
</g>
<g class="col33">
  <rect x="549" y="54" width="11" height="11" rx="2" ry="2" fill="#26a641"/>
  <rect x="549" y="68" width="11" height="11" rx="2" ry="2" fill="#002808"/>
  <rect x="549" y="82" width="11" height="11" rx="2" ry="2" fill="#0d1117"/>
  <rect x="549" y="96" width="11" height="11" rx="2" ry="2" fill="#005c16"/>
  <rect x="549" y="110" width="11" height="11" rx="2" ry="2" fill="#005c16"/>
  <rect x="549" y="124" width="11" height="11" rx="2" ry="2" fill="#005c16"/>
  <rect x="549" y="138" width="11" height="11" rx="2" ry="2" fill="#26a641"/>
</g>
<g class="col34">
  <rect x="563" y="54" width="11" height="11" rx="2" ry="2" fill="#002808"/>
  <rect x="563" y="68" width="11" height="11" rx="2" ry="2" fill="#0d1117"/>
  <rect x="563" y="82" width="11" height="11" rx="2" ry="2" fill="#0d1117"/>
  <rect x="563" y="96" width="11" height="11" rx="2" ry="2" fill="#26a641"/>
  <rect x="563" y="110" width="11" height="11" rx="2" ry="2" fill="#39ff14"/>
  <rect x="563" y="124" width="11" height="11" rx="2" ry="2" fill="#005c16"/>
  <rect x="563" y="138" width="11" height="11" rx="2" ry="2" fill="#26a641"/>
</g>
<g class="col35">
  <rect x="577" y="54" width="11" height="11" rx="2" ry="2" fill="#0d1117"/>
  <rect x="577" y="68" width="11" height="11" rx="2" ry="2" fill="#0d1117"/>
  <rect x="577" y="82" width="11" height="11" rx="2" ry="2" fill="#0d1117"/>
  <rect x="577" y="96" width="11" height="11" rx="2" ry="2" fill="#002808"/>
  <rect x="577" y="110" width="11" height="11" rx="2" ry="2" fill="#0d1117"/>
  <rect x="577" y="124" width="11" height="11" rx="2" ry="2" fill="#26a641"/>
  <rect x="577" y="138" width="11" height="11" rx="2" ry="2" fill="#0d1117"/>
</g>
<g class="col36">
  <rect x="591" y="54" width="11" height="11" rx="2" ry="2" fill="#0d1117"/>
  <rect x="591" y="68" width="11" height="11" rx="2" ry="2" fill="#002808"/>
  <rect x="591" y="82" width="11" height="11" rx="2" ry="2" fill="#002808"/>
  <rect x="591" y="96" width="11" height="11" rx="2" ry="2" fill="#002808"/>
  <rect x="591" y="110" width="11" height="11" rx="2" ry="2" fill="#0d1117"/>
  <rect x="591" y="124" width="11" height="11" rx="2" ry="2" fill="#0d1117"/>
  <rect x="591" y="138" width="11" height="11" rx="2" ry="2" fill="#0d1117"/>
</g>
<g class="col37">
  <rect x="605" y="54" width="11" height="11" rx="2" ry="2" fill="#0d1117"/>
  <rect x="605" y="68" width="11" height="11" rx="2" ry="2" fill="#002808"/>
  <rect x="605" y="82" width="11" height="11" rx="2" ry="2" fill="#0d1117"/>
  <rect x="605" y="96" width="11" height="11" rx="2" ry="2" fill="#002808"/>
  <rect x="605" y="110" width="11" height="11" rx="2" ry="2" fill="#26a641"/>
  <rect x="605" y="124" width="11" height="11" rx="2" ry="2" fill="#002808"/>
  <rect x="605" y="138" width="11" height="11" rx="2" ry="2" fill="#005c16"/>
</g>
<g class="col38">
  <rect x="619" y="54" width="11" height="11" rx="2" ry="2" fill="#0d1117"/>
  <rect x="619" y="68" width="11" height="11" rx="2" ry="2" fill="#26a641"/>
  <rect x="619" y="82" width="11" height="11" rx="2" ry="2" fill="#0d1117"/>
  <rect x="619" y="96" width="11" height="11" rx="2" ry="2" fill="#002808"/>
  <rect x="619" y="110" width="11" height="11" rx="2" ry="2" fill="#0d1117"/>
  <rect x="619" y="124" width="11" height="11" rx="2" ry="2" fill="#0d1117"/>
  <rect x="619" y="138" width="11" height="11" rx="2" ry="2" fill="#0d1117"/>
</g>
<g class="col39">
  <rect x="633" y="54" width="11" height="11" rx="2" ry="2" fill="#0d1117"/>
  <rect x="633" y="68" width="11" height="11" rx="2" ry="2" fill="#0d1117"/>
  <rect x="633" y="82" width="11" height="11" rx="2" ry="2" fill="#0d1117"/>
  <rect x="633" y="96" width="11" height="11" rx="2" ry="2" fill="#005c16"/>
  <rect x="633" y="110" width="11" height="11" rx="2" ry="2" fill="#0d1117"/>
  <rect x="633" y="124" width="11" height="11" rx="2" ry="2" fill="#002808"/>
  <rect x="633" y="138" width="11" height="11" rx="2" ry="2" fill="#0d1117"/>
</g>
<g class="col40">
  <rect x="647" y="54" width="11" height="11" rx="2" ry="2" fill="#26a641"/>
  <rect x="647" y="68" width="11" height="11" rx="2" ry="2" fill="#0d1117"/>
  <rect x="647" y="82" width="11" height="11" rx="2" ry="2" fill="#005c16"/>
  <rect x="647" y="96" width="11" height="11" rx="2" ry="2" fill="#0d1117"/>
  <rect x="647" y="110" width="11" height="11" rx="2" ry="2" fill="#002808"/>
  <rect x="647" y="124" width="11" height="11" rx="2" ry="2" fill="#002808"/>
  <rect x="647" y="138" width="11" height="11" rx="2" ry="2" fill="#005c16"/>
</g>
<g class="col41">
  <rect x="661" y="54" width="11" height="11" rx="2" ry="2" fill="#002808"/>
  <rect x="661" y="68" width="11" height="11" rx="2" ry="2" fill="#26a641"/>
  <rect x="661" y="82" width="11" height="11" rx="2" ry="2" fill="#005c16"/>
  <rect x="661" y="96" width="11" height="11" rx="2" ry="2" fill="#0d1117"/>
  <rect x="661" y="110" width="11" height="11" rx="2" ry="2" fill="#26a641"/>
  <rect x="661" y="124" width="11" height="11" rx="2" ry="2" fill="#005c16"/>
  <rect x="661" y="138" width="11" height="11" rx="2" ry="2" fill="#0d1117"/>
</g>
<g class="col42">
  <rect x="675" y="54" width="11" height="11" rx="2" ry="2" fill="#002808"/>
  <rect x="675" y="68" width="11" height="11" rx="2" ry="2" fill="#002808"/>
  <rect x="675" y="82" width="11" height="11" rx="2" ry="2" fill="#005c16"/>
  <rect x="675" y="96" width="11" height="11" rx="2" ry="2" fill="#0d1117"/>
  <rect x="675" y="110" width="11" height="11" rx="2" ry="2" fill="#0d1117"/>
  <rect x="675" y="124" width="11" height="11" rx="2" ry="2" fill="#0d1117"/>
  <rect x="675" y="138" width="11" height="11" rx="2" ry="2" fill="#0d1117"/>
</g>
<g class="col43">
  <rect x="689" y="54" width="11" height="11" rx="2" ry="2" fill="#005c16"/>
  <rect x="689" y="68" width="11" height="11" rx="2" ry="2" fill="#005c16"/>
  <rect x="689" y="82" width="11" height="11" rx="2" ry="2" fill="#002808"/>
  <rect x="689" y="96" width="11" height="11" rx="2" ry="2" fill="#002808"/>
  <rect x="689" y="110" width="11" height="11" rx="2" ry="2" fill="#39ff14"/>
  <rect x="689" y="124" width="11" height="11" rx="2" ry="2" fill="#005c16"/>
  <rect x="689" y="138" width="11" height="11" rx="2" ry="2" fill="#26a641"/>
</g>
<g class="col44">
  <rect x="703" y="54" width="11" height="11" rx="2" ry="2" fill="#26a641"/>
  <rect x="703" y="68" width="11" height="11" rx="2" ry="2" fill="#0d1117"/>
  <rect x="703" y="82" width="11" height="11" rx="2" ry="2" fill="#002808"/>
  <rect x="703" y="96" width="11" height="11" rx="2" ry="2" fill="#0d1117"/>
  <rect x="703" y="110" width="11" height="11" rx="2" ry="2" fill="#002808"/>
  <rect x="703" y="124" width="11" height="11" rx="2" ry="2" fill="#005c16"/>
  <rect x="703" y="138" width="11" height="11" rx="2" ry="2" fill="#0d1117"/>
</g>
<g class="col45">
  <rect x="717" y="54" width="11" height="11" rx="2" ry="2" fill="#005c16"/>
  <rect x="717" y="68" width="11" height="11" rx="2" ry="2" fill="#0d1117"/>
  <rect x="717" y="82" width="11" height="11" rx="2" ry="2" fill="#005c16"/>
  <rect x="717" y="96" width="11" height="11" rx="2" ry="2" fill="#39ff14"/>
  <rect x="717" y="110" width="11" height="11" rx="2" ry="2" fill="#0d1117"/>
  <rect x="717" y="124" width="11" height="11" rx="2" ry="2" fill="#005c16"/>
  <rect x="717" y="138" width="11" height="11" rx="2" ry="2" fill="#002808"/>
</g>
<g class="col46">
  <rect x="731" y="54" width="11" height="11" rx="2" ry="2" fill="#005c16"/>
  <rect x="731" y="68" width="11" height="11" rx="2" ry="2" fill="#005c16"/>
  <rect x="731" y="82" width="11" height="11" rx="2" ry="2" fill="#0d1117"/>
  <rect x="731" y="96" width="11" height="11" rx="2" ry="2" fill="#002808"/>
  <rect x="731" y="110" width="11" height="11" rx="2" ry="2" fill="#26a641"/>
  <rect x="731" y="124" width="11" height="11" rx="2" ry="2" fill="#0d1117"/>
  <rect x="731" y="138" width="11" height="11" rx="2" ry="2" fill="#002808"/>
</g>
<g class="col47">
  <rect x="745" y="54" width="11" height="11" rx="2" ry="2" fill="#002808"/>
  <rect x="745" y="68" width="11" height="11" rx="2" ry="2" fill="#002808"/>
  <rect x="745" y="82" width="11" height="11" rx="2" ry="2" fill="#26a641"/>
  <rect x="745" y="96" width="11" height="11" rx="2" ry="2" fill="#002808"/>
  <rect x="745" y="110" width="11" height="11" rx="2" ry="2" fill="#26a641"/>
  <rect x="745" y="124" width="11" height="11" rx="2" ry="2" fill="#0d1117"/>
  <rect x="745" y="138" width="11" height="11" rx="2" ry="2" fill="#002808"/>
</g>
<g class="col48">
  <rect x="759" y="54" width="11" height="11" rx="2" ry="2" fill="#26a641"/>
  <rect x="759" y="68" width="11" height="11" rx="2" ry="2" fill="#26a641"/>
  <rect x="759" y="82" width="11" height="11" rx="2" ry="2" fill="#0d1117"/>
  <rect x="759" y="96" width="11" height="11" rx="2" ry="2" fill="#26a641"/>
  <rect x="759" y="110" width="11" height="11" rx="2" ry="2" fill="#005c16"/>
  <rect x="759" y="124" width="11" height="11" rx="2" ry="2" fill="#39ff14"/>
  <rect x="759" y="138" width="11" height="11" rx="2" ry="2" fill="#002808"/>
</g>
<g class="col49">
  <rect x="773" y="54" width="11" height="11" rx="2" ry="2" fill="#002808"/>
  <rect x="773" y="68" width="11" height="11" rx="2" ry="2" fill="#0d1117"/>
  <rect x="773" y="82" width="11" height="11" rx="2" ry="2" fill="#0d1117"/>
  <rect x="773" y="96" width="11" height="11" rx="2" ry="2" fill="#0d1117"/>
  <rect x="773" y="110" width="11" height="11" rx="2" ry="2" fill="#0d1117"/>
  <rect x="773" y="124" width="11" height="11" rx="2" ry="2" fill="#005c16"/>
  <rect x="773" y="138" width="11" height="11" rx="2" ry="2" fill="#005c16"/>
</g>
<g class="col50">
  <rect x="787" y="54" width="11" height="11" rx="2" ry="2" fill="#002808"/>
  <rect x="787" y="68" width="11" height="11" rx="2" ry="2" fill="#39ff14"/>
  <rect x="787" y="82" width="11" height="11" rx="2" ry="2" fill="#26a641"/>
  <rect x="787" y="96" width="11" height="11" rx="2" ry="2" fill="#002808"/>
  <rect x="787" y="110" width="11" height="11" rx="2" ry="2" fill="#002808"/>
  <rect x="787" y="124" width="11" height="11" rx="2" ry="2" fill="#002808"/>
  <rect x="787" y="138" width="11" height="11" rx="2" ry="2" fill="#39ff14"/>
</g>
<g class="col51">
  <rect x="801" y="54" width="11" height="11" rx="2" ry="2" fill="#26a641"/>
  <rect x="801" y="68" width="11" height="11" rx="2" ry="2" fill="#0d1117"/>
  <rect x="801" y="82" width="11" height="11" rx="2" ry="2" fill="#39ff14"/>
  <rect x="801" y="96" width="11" height="11" rx="2" ry="2" fill="#005c16"/>
  <rect x="801" y="110" width="11" height="11" rx="2" ry="2" fill="#002808"/>
  <rect x="801" y="124" width="11" height="11" rx="2" ry="2" fill="#002808"/>
  <rect x="801" y="138" width="11" height="11" rx="2" ry="2" fill="#39ff14"/>
</g>
<rect x="44" y="157" width="812" height="0.7" fill="#39ff14" opacity="0.22"/>
<text x="732" y="172" text-anchor="end" font-size="9" fill="#39ff14" opacity="0.4" class="t lbl">Less</text>
<rect x="740" y="163" width="12" height="12" rx="2" fill="#0d1117"/>
<rect x="758" y="163" width="12" height="12" rx="2" fill="#002808"/>
<rect x="776" y="163" width="12" height="12" rx="2" fill="#005c16"/>
<rect x="794" y="163" width="12" height="12" rx="2" fill="#26a641"/>
<rect x="812" y="163" width="12" height="12" rx="2" fill="#39ff14"/>
<text x="834" y="172" font-size="9" fill="#39ff14" opacity="0.4" class="t lbl">More</text>
</svg>